<?xml version="1.0" encoding="utf-8"?>
<!-- Generator: Adobe Illustrator 21.1.0, SVG Export Plug-In . SVG Version: 6.00 Build 0)  -->
<svg version="1.1" id="Layer_1" xmlns="http://www.w3.org/2000/svg" xmlns:xlink="http://www.w3.org/1999/xlink" x="0px" y="0px"
	 viewBox="0 0 250 250" style="enable-background:new 0 0 250 250;" xml:space="preserve">
<style type="text/css">
	.st0{fill:#FFFFFF;}
	.st1{fill:#009BBB;}
</style>
<g>
	<circle class="st0" cx="125" cy="130" r="109.1"/>
</g>
<path class="st1" d="M172.2,142.4V137c1.1,0.3,2.3,0.8,3.4,1.4c0.6,0.3,1.1,0.4,1.5,0.4c1.5,0,2.8-1,2.8-2.4c0-0.9-0.5-1.6-1.4-2.1
	c-2-1.1-4-1.8-6.1-2.1c0-1.2-1.2-2.2-2.5-2.2s-2.4,1-2.5,2.1c-5,0.6-8.4,3.4-8.4,7.1c0,4.6,4.2,6.3,8.5,7.3v5.6
	c-1.8-0.3-3.4-1.1-5.2-2.3c-0.5-0.3-1-0.4-1.6-0.4c-1.5,0-2.7,1.1-2.7,2.4c0,0.6,0.2,1.5,1.3,2.1c2.6,1.6,5.2,2.6,8.1,2.9v1.2
	c0,1.2,1.2,2.3,2.5,2.3c1.4,0,2.5-1,2.5-2.3v-1.1c5.2-0.6,8.5-3.4,8.5-7.2C180.9,145,176.4,143.3,172.2,142.4 M175.3,149.8
	c0,1.2-1.2,2.1-3.1,2.4v-4.8C175.3,148.3,175.3,149.1,175.3,149.8 M164.4,139c0-1.1,1.2-1.9,3-2.3v4.7
	C164.4,140.6,164.4,139.7,164.4,139"/>
<path class="st1" d="M102.7,123.3c-1.1-1.1-2.5-1.9-4.1-2.5s-3.3-0.8-5.2-0.8c-1.1,0-2,0.1-2.8,0.3l0.1-4.6h14.4v-7.6H82.4l-0.4,21
	l0.6-0.2c1.2-0.4,2.4-0.7,3.7-1c2.2-0.4,4.4-0.5,6.6-0.1c0.9,0.2,1.8,0.5,2.6,0.9c0.7,0.4,1.3,1,1.8,1.7c0.4,0.7,0.7,1.6,0.7,2.7
	c0,1.5-0.4,2.6-1.3,3.6c-0.9,0.9-2.1,1.4-3.6,1.4c-1.2,0-2.2-0.4-3.1-1.1c-0.8-0.7-1.3-1.7-1.5-2.9l-0.1-0.4l-8.9,2l0.1,0.4
	c0.8,3.2,2.3,5.6,4.5,7.2c2.2,1.6,4.9,2.4,8.1,2.4c2,0,3.9-0.3,5.6-0.9c1.7-0.6,3.3-1.5,4.5-2.6c1.3-1.1,2.3-2.6,3-4.2
	c0.7-1.7,1.1-3.6,1.1-5.6c0-1.9-0.3-3.6-1-5.1C104.7,125.7,103.8,124.4,102.7,123.3"/>
<polygon class="st1" points="123.3,108.1 111.1,118.4 115.9,124.1 122.8,118 122.8,145.1 131,145.1 131,108.1 "/>
<path class="st1" d="M89.8,152.1c-0.6-0.5-1.4-0.8-2.2-1c-0.8-0.2-1.7-0.3-2.6-0.3h-3.9v11.6h4.2c0.9,0,1.7-0.1,2.5-0.4
	c0.8-0.3,1.5-0.6,2.1-1.1s1.1-1.1,1.4-1.8c0.4-0.7,0.5-1.6,0.5-2.5c0-1.1-0.2-2-0.6-2.7C90.9,153.2,90.4,152.6,89.8,152.1
	 M88.9,156.5c0,0.6-0.1,1.1-0.3,1.5c-0.2,0.4-0.5,0.7-0.8,1s-0.7,0.4-1.2,0.5s-1,0.2-1.5,0.2H84v-6.3h1.3c0.5,0,1,0.1,1.4,0.2
	c0.5,0.1,0.8,0.3,1.2,0.6c0.3,0.2,0.6,0.6,0.8,0.9C88.8,155.6,88.9,156,88.9,156.5"/>
<path class="st1" d="M100.4,150.8l-5,11.6h3.2l0.9-2.4h4.1l1,2.4h3.2l-5.1-11.6H100.4z M102.5,157.6h-2.1l1.1-2.7L102.5,157.6z"/>
<polygon class="st1" points="114.9,154.8 112.6,150.8 109,150.8 113.4,157.5 113.4,162.4 116.3,162.4 116.3,157.5 120.7,150.8 
	117.3,150.8 "/>
<path class="st1" d="M130.7,156.1c-0.4-0.2-0.8-0.4-1.3-0.6c-0.4-0.1-0.9-0.3-1.2-0.4c-0.4-0.1-0.7-0.3-0.9-0.4
	c-0.2-0.1-0.3-0.3-0.3-0.6c0-0.2,0-0.3,0.1-0.4c0.1-0.1,0.2-0.2,0.3-0.3c0.2-0.1,0.3-0.1,0.5-0.2c0.5-0.1,0.9-0.1,1.4,0.1
	c0.3,0.1,0.6,0.3,0.7,0.5l0.2,0.2l2-2.2l-0.2-0.1c-0.5-0.4-1.1-0.8-1.7-0.9c-1.2-0.3-2.4-0.4-3.6,0c-0.5,0.2-1,0.4-1.4,0.7
	s-0.8,0.7-1,1.2c-0.3,0.5-0.4,1.1-0.4,1.7c0,0.7,0.1,1.2,0.4,1.6c0.3,0.4,0.6,0.7,1,1c0.4,0.2,0.8,0.4,1.3,0.6
	c0.5,0.1,0.9,0.3,1.3,0.4c0.4,0.1,0.7,0.3,0.9,0.5s0.3,0.4,0.3,0.6c0,0.2,0,0.3-0.1,0.4c-0.1,0.1-0.2,0.2-0.3,0.3s-0.3,0.2-0.5,0.2
	c-0.6,0.1-1.1,0.1-1.7-0.2c-0.4-0.2-0.6-0.4-0.9-0.7l-0.2-0.2l-2.1,2.3l0.1,0.1c0.6,0.5,1.2,0.9,1.8,1.1c0.6,0.2,1.4,0.3,2.1,0.3
	c0.6,0,1.2-0.1,1.7-0.2c0.5-0.2,1-0.4,1.5-0.7c0.4-0.3,0.8-0.7,1-1.2s0.4-1.1,0.4-1.7c0-0.7-0.1-1.3-0.4-1.7
	C131.4,156.7,131.1,156.4,130.7,156.1"/>
<path class="st1" d="M86.4,88.4h1c1.9,0,3.4-1.5,3.4-3.4V72.9c0-1.9-1.5-3.4-3.4-3.4h-1c-1.9,0-3.4,1.5-3.4,3.4V85
	C83,86.9,84.5,88.4,86.4,88.4"/>
<path class="st1" d="M126.8,88.4h1c1.9,0,3.4-1.5,3.4-3.4V72.9c0-1.9-1.5-3.4-3.4-3.4h-1c-1.9,0-3.4,1.5-3.4,3.4V85
	C123.4,86.9,124.9,88.4,126.8,88.4"/>
<path class="st1" d="M192.1,119.8c-0.7-0.1-1.4-0.3-2.1-0.4c-1.3-0.2-2.6-0.5-4.1-0.7v-6.1c0-1.1-0.7-2.1-1.8-2.4
	c-0.2-0.1-2.5-0.7-8.3-0.8V104c0-0.9-0.5-1.8-1.4-2.2c-0.8-0.4-5.3-1.9-23.5-0.3V88.7c0-6.5-5.3-11.9-11.9-11.9h-3.7V85
	c0,4.2-3.4,7.5-7.5,7.5h-1c-4.2,0-7.5-3.4-7.5-7.5v-8.2H95V85c0,4.2-3.4,7.5-7.5,7.5h-1c-4.2,0-7.5-3.4-7.5-7.5v-8.2h-5
	c-6.6,0-11.9,5.3-11.9,11.9v75.7c0,6.5,5.3,11.9,11.9,11.9h65.2c3.4,0,6.4-1.4,8.6-3.7c0.1,0,0.3,0,0.4,0c9.4-0.9,17.9-1.3,25.3-1.3
	c12.2,0,17.2,1.2,17.3,1.2c1,0.3,2,0,2.8-0.6s1.3-1.6,1.3-2.6V123C194.8,121.5,193.6,120.1,192.1,119.8 M143.6,102.2v4.9v4.6v5v3.4
	v6.6v37.5c0,0.7-0.2,1.4-0.5,2c-0.2,0.4-0.4,0.7-0.7,1l0,0c-0.3,0.3-0.6,0.5-0.9,0.7c0,0,0,0-0.1,0c-0.1,0.1-0.3,0.2-0.4,0.2h-0.1
	c-0.2,0.1-0.3,0.1-0.5,0.2h-0.1c-0.2,0-0.3,0.1-0.5,0.1c-0.1,0-0.1,0-0.2,0c-0.2,0-0.4,0-0.6,0h-38.3H73.9c-2.5,0-4.5-2-4.5-4.5
	v-63.2h74.2V102.2z M151,106.4c12-1.1,17.6-0.8,19.9-0.5v3.4c-4.9,0.1-11.4,0.5-19.9,1.4V106.4z M151,115.7c17.8-2,26.6-1.5,30-1.1
	v3.5c-1.7-0.1-3.5-0.2-5.7-0.2c-6,0-13.9,0.5-24.3,1.5V115.7z M188.2,165.4c-3-0.4-7.8-0.8-14.8-0.8c-6.7,0-14.3,0.4-22.5,1
	c0-0.4,0.1-0.9,0.1-1.3v-38.2c10.5-1.1,18.4-1.6,24.3-1.6c6.3,0,9.6,0.6,12.9,1.2V165.4z"/>
</svg>
