<?xml version="1.0" encoding="utf-8"?>
<!-- Generator: Adobe Illustrator 21.1.0, SVG Export Plug-In . SVG Version: 6.00 Build 0)  -->
<svg version="1.1" id="Layer_1" xmlns="http://www.w3.org/2000/svg" xmlns:xlink="http://www.w3.org/1999/xlink" x="0px" y="0px"
	 viewBox="0 0 250 250" style="enable-background:new 0 0 250 250;" xml:space="preserve">
<style type="text/css">
	.st0{fill:#FFFFFF;}
	.st1{clip-path:url(#SVGID_2_);fill:#009BBB;}
</style>
<circle class="st0" cx="133.4" cy="125" r="109.1"/>
<g>
	<g>
		<defs>
			<rect id="SVGID_1_" x="78.9" y="66" width="109.1" height="118"/>
		</defs>
		<clipPath id="SVGID_2_">
			<use xlink:href="#SVGID_1_"  style="overflow:visible;"/>
		</clipPath>
		<path class="st1" d="M137,114.9l-0.6-1.2l2.5-1.4c-1.7-2.6-4-4.6-6.8-5.8l-1,2.7l-1.2-0.4l1-2.7c-1.4-0.4-3-0.6-4.5-0.6
			c-1.5,0-3.1,0.3-4.5,0.6l1,2.7l-1.2,0.4l-1-2.7c-2.8,1.2-5.2,3.2-6.8,5.8l2.5,1.4l-0.6,1.2l-2.5-1.4c-1,2.1-1.7,4.4-1.7,6.8
			c0,0.6,0,1.3,0.1,1.9l2.7-0.5l0.3,1.3l-2.7,0.5c0.6,3,2.3,5.7,4.5,7.7l1.8-2.1l1,0.8l-1.8,2.1c2.3,1.8,5.2,2.8,8.4,3v-2.7h1.3v2.7
			c3.1-0.1,6.1-1.3,8.4-3l-1.8-2.1l1-0.8l1.8,2.1c2.2-2.1,3.7-4.6,4.5-7.7l-2.7-0.5l0.3-1.3l2.7,0.5c0.1-0.6,0.1-1.3,0.1-1.9
			c0-2.5-0.6-4.8-1.7-6.8L137,114.9z M126.3,129.4c-5,0-9-4-9-9s4-9,9-9s9,4,9,9C135.3,125.4,131.3,129.4,126.3,129.4 M166.3,110
			h6.5V94.8h-6.5V110z M162.8,127.1h6.3v-13.4h-6.3V91h6.3v-7.4H97.6V157h71.5v-7.4h-6.3V127.1z M126.3,140
			c-10.8,0-19.6-8.8-19.6-19.6c0-10.8,8.8-19.6,19.6-19.6c10.8,0,19.6,8.8,19.6,19.6S137.1,140,126.3,140 M169,66H97.9
			c-10.5,0-19,8.5-19,19v70.9c0,10.3,8.4,18.8,18.7,19v9.3h17.2v-9.3h37.4v9.3h17.2v-9.3c10.3-0.1,18.7-8.5,18.7-19V85
			C187.9,74.5,179.5,66,169,66 M179.3,155.7c0,5.7-4.6,10.3-10.3,10.3H97.9c-5.7,0-10.3-4.6-10.3-10.3V85c0-5.7,4.6-10.3,10.3-10.3
			H169c5.7,0,10.3,4.6,10.3,10.3V155.7z M166.3,146h6.5v-15.2h-6.5V146z"/>
	</g>
</g>
</svg>
