<?xml version="1.0" encoding="utf-8"?>
<!-- Generator: Adobe Illustrator 21.1.0, SVG Export Plug-In . SVG Version: 6.00 Build 0)  -->
<svg version="1.1" id="Layer_1" xmlns="http://www.w3.org/2000/svg" xmlns:xlink="http://www.w3.org/1999/xlink" x="0px" y="0px"
	 viewBox="0 0 250 250" style="enable-background:new 0 0 250 250;" xml:space="preserve">
<style type="text/css">
	.st0{fill:#FFFFFF;}
	.st1{fill:#009BBB;}
</style>
<g>
	<circle class="st0" cx="125.9" cy="129.4" r="109.1"/>
	<path class="st1" d="M177.4,85H89.3c-4.8,0-8.6,3.8-8.6,8.6v2.3h85.1c5.6,0,10.1,4.5,10.1,10.1l-0.1,49.8h1.6
		c4.8,0,8.6-3.9,8.6-8.6l0.1-53.5C186,88.9,182.2,85,177.4,85"/>
	<path class="st1" d="M169.1,110.6c0-4.8-3.8-8.6-8.6-8.6H72.4c-4.8,0-8.6,3.8-8.6,8.6v5.2h105.3V110.6z"/>
	<path class="st1" d="M169.1,124.2l-0.1,39.9c0,4.8-3.9,8.6-8.6,8.6H72.3c-4.8,0-8.6-3.9-8.6-8.7l0.1-39.9L169.1,124.2z
		 M133.2,133.5c-5.8,0-10.1,3.5-13.8,6.8l4.3,4.1c3.1-2.7,6-4.9,9.5-4.9c4.1,0,7.4,3.7,7.4,8.3s-3.3,8.4-7.4,8.4
		c-3.4,0-10.9-6.4-14.9-9.9c-0.8-0.7-1.5-1.3-2.1-1.8c-4.5-4.2-11.7-11-18.2-11c-7.4,0-13.4,6.4-13.4,14.3c0,7.9,6,14.3,13.4,14.3
		c5.9,0,10.5-3.8,14.5-7.4l-4.8-3.7c-3.2,2.8-6.3,5.1-9.7,5.1c-4.1,0-7.4-3.8-7.4-8.4c0-4.6,3.3-8.3,7.4-8.3s10.7,6.1,14.2,9.4
		c0,0,0,0,0.1,0.1s0.2,0.1,0.2,0.2l0,0c0.6,0.5,1.3,1.1,2,1.7c7.2,6.2,13.5,11.3,18.7,11.3c7.4,0,13.4-6.4,13.4-14.3
		C146.5,139.9,140.5,133.5,133.2,133.5"/>
</g>
</svg>
